<?xml version="1.0" encoding="utf-8"?>
<!-- Generator: Adobe Illustrator 27.9.0, SVG Export Plug-In . SVG Version: 6.00 Build 0)  -->
<svg version="1.1" id="Capa_1" xmlns="http://www.w3.org/2000/svg" xmlns:xlink="http://www.w3.org/1999/xlink" x="0px" y="0px"
	 viewBox="0 0 264.2 264.2" style="enable-background:new 0 0 264.2 264.2;" xml:space="preserve">
<style type="text/css">
	.st0{fill:#008CD0;}
</style>
<g id="Capa_2_00000075878665191874154170000008506290066004260495_">
	<g id="Capa_1-2">
		<g>
			<path class="st0" d="M132.1,23.8c35.3,0,39.5,0.1,53.4,0.8c12.9,0.6,19.9,2.7,24.5,4.5c6.2,2.4,10.6,5.3,15.2,9.9s7.5,9,9.9,15.2
				c1.8,4.6,4,11.6,4.5,24.5c0.6,13.9,0.8,18.1,0.8,53.4s-0.1,39.5-0.8,53.4c-0.6,12.9-2.7,19.9-4.5,24.5
				c-2.4,6.2-5.3,10.6-9.9,15.2s-9,7.5-15.2,9.9c-4.6,1.8-11.6,4-24.5,4.5c-13.9,0.6-18.1,0.8-53.4,0.8s-39.5-0.1-53.4-0.8
				c-12.9-0.6-19.9-2.7-24.5-4.5c-6.2-2.4-10.6-5.3-15.2-9.9s-7.5-9-9.9-15.2c-1.8-4.6-4-11.6-4.5-24.5c-0.6-13.9-0.8-18.1-0.8-53.4
				s0.1-39.5,0.8-53.4c0.6-12.9,2.7-19.9,4.5-24.5C31.5,48,34.4,43.6,39,39s9-7.5,15.2-9.9c4.6-1.8,11.6-4,24.5-4.5
				C92.7,23.9,96.8,23.8,132.1,23.8 M132.1,0C96.2,0,91.7,0.1,77.6,0.8C63.6,1.4,54,3.7,45.6,6.9c-8.7,3.4-16,7.9-23.4,15.2
				c-7.3,7.3-11.9,14.7-15.2,23.4c-3.3,8.4-5.5,18-6.1,32.1C0.1,91.7,0,96.2,0,132.1s0.1,40.4,0.8,54.5c0.6,14.1,2.9,23.7,6.1,32.1
				c3.4,8.7,7.9,16,15.2,23.4c7.3,7.3,14.7,11.9,23.4,15.2c8.4,3.3,18,5.5,32.1,6.1c14.1,0.6,18.6,0.8,54.5,0.8s40.4-0.1,54.5-0.8
				c14.1-0.6,23.7-2.9,32.1-6.1c8.7-3.4,16-7.9,23.4-15.2c7.3-7.3,11.9-14.7,15.2-23.4c3.3-8.4,5.5-18,6.1-32.1
				c0.6-14.1,0.8-18.6,0.8-54.5s-0.1-40.4-0.8-54.5c-0.6-14.1-2.9-23.7-6.1-32.1c-3.4-8.7-7.9-16-15.2-23.4
				c-7.3-7.3-14.7-11.9-23.4-15.2c-8.4-3.3-18-5.5-32.1-6.1C172.5,0.1,168,0,132.1,0L132.1,0z"/>
			<path class="st0" d="M132.1,64.3c-37.5,0-67.8,30.4-67.8,67.8s30.4,67.8,67.8,67.8s67.8-30.4,67.8-67.8S169.6,64.3,132.1,64.3z
				 M132.1,176.1c-24.3,0-44-19.7-44-44s19.7-44,44-44s44,19.7,44,44S156.4,176.1,132.1,176.1z"/>
			<circle class="st0" cx="202.6" cy="61.6" r="15.9"/>
		</g>
	</g>
</g>
</svg>
