<?xml version="1.0" encoding="utf-8"?>
<!-- Generator: Adobe Illustrator 27.9.0, SVG Export Plug-In . SVG Version: 6.00 Build 0)  -->
<svg version="1.1" id="Capa_1" xmlns="http://www.w3.org/2000/svg" xmlns:xlink="http://www.w3.org/1999/xlink" x="0px" y="0px"
	 viewBox="0 0 373.2 373.2" style="enable-background:new 0 0 373.2 373.2;" xml:space="preserve">
<style type="text/css">
	.st0{fill:#008CD0;}
</style>
<g id="Capa_2_00000129190368311409266180000009579398140308999352_">
	<g id="Capa_1-2">
		<path class="st0" d="M140.8,30.7L156,57.8c13.7,24.5,8.2,56.6-13.3,78.1l0,0c0,0-26.1,26.1,21.2,73.4
			c47.3,47.3,73.4,21.2,73.4,21.2l0,0c21.5-21.5,53.6-27,78.1-13.3l27.1,15.1c37,20.6,41.3,72.5,8.8,105
			c-19.5,19.5-43.4,34.7-69.9,35.7c-44.5,1.7-120.1-9.6-195.9-85.4C9.7,211.8-1.5,136.3,0.2,91.7c1-26.4,16.2-50.4,35.7-69.9
			C68.4-10.6,120.2-6.3,140.8,30.7L140.8,30.7z"/>
	</g>
</g>
</svg>
