<?xml version="1.0" encoding="utf-8"?>
<!-- Generator: Adobe Illustrator 27.9.0, SVG Export Plug-In . SVG Version: 6.00 Build 0)  -->
<svg version="1.1" id="Capa_1" xmlns="http://www.w3.org/2000/svg" xmlns:xlink="http://www.w3.org/1999/xlink" x="0px" y="0px"
	 viewBox="0 0 292.1 389.4" style="enable-background:new 0 0 292.1 389.4;" xml:space="preserve">
<style type="text/css">
	.st0{fill:#008CD0;}
</style>
<g id="Capa_2_00000093146731731790293380000001284572558389479316_">
	<g id="Capa_1-2">
		<g>
			<path class="st0" d="M146,0C65.4,0,0,65.4,0,146c0,34.5,15.2,64.9,32.1,91.3l104,147c2.3,3.2,6,5.1,9.9,5.1s7.6-1.9,9.9-5.1
				l104-147c16.1-21.7,32.1-56.7,32.1-91.3C292.1,65.4,226.7,0,146,0z M146,231.2c-47.1,0-85.2-38.1-85.2-85.2S99,60.9,146,60.9
				S231.2,99,231.2,146S193.1,231.2,146,231.2z"/>
			<path class="st0" d="M146,73c-40.3,0-73,32.7-73,73s32.7,73,73,73s73-32.7,73-73S186.4,73,146,73z M146,206.9
				c-33.6,0-60.9-27.2-60.9-60.9s27.2-60.9,60.9-60.9s60.9,27.2,60.9,60.9S179.7,206.9,146,206.9z"/>
		</g>
	</g>
</g>
</svg>
