<?xml version="1.0" encoding="utf-8"?>
<!-- Generator: Adobe Illustrator 27.9.0, SVG Export Plug-In . SVG Version: 6.00 Build 0)  -->
<svg version="1.1" id="Capa_1" xmlns="http://www.w3.org/2000/svg" xmlns:xlink="http://www.w3.org/1999/xlink" x="0px" y="0px"
	 viewBox="0 0 268.1 269.3" style="enable-background:new 0 0 268.1 269.3;" xml:space="preserve">
<style type="text/css">
	.st0{fill-rule:evenodd;clip-rule:evenodd;fill:#008CD0;}
</style>
<g id="Capa_2_00000150813716750588613540000002413603963005591193_">
	<g id="Capa_1-2">
		<g id="WA_Logo">
			<path class="st0" d="M229,39.1C203.8,13.9,170.3,0,134.6,0C61,0,1.1,59.9,1.1,133.4c0,23.5,6.1,46.5,17.8,66.7L0,269.3l70.8-18.6
				c19.5,10.6,41.5,16.2,63.8,16.2h0l0,0c73.6,0,133.5-59.9,133.5-133.4C268.1,97.9,254.2,64.4,229,39.1L229,39.1z M134.6,244.4
				L134.6,244.4c-20,0-39.5-5.4-56.5-15.5l-4-2.4l-42,11l11.2-40.9l-2.6-4.2c-11.1-17.7-17-38.1-17-59c0-61.1,49.8-110.9,111-110.9
				c29.6,0,57.5,11.6,78.4,32.5c21,21,32.5,48.8,32.5,78.5C245.5,194.7,195.7,244.4,134.6,244.4L134.6,244.4z M195.5,161.4
				c-3.3-1.7-19.7-9.7-22.8-10.9c-3.1-1.1-5.3-1.7-7.5,1.7s-8.6,10.9-10.6,13.1c-2,2.2-3.9,2.5-7.2,0.8s-14.1-5.2-26.8-16.5
				c-9.9-8.8-16.6-19.8-18.5-23.1c-2-3.3-0.2-5.1,1.5-6.8c1.5-1.5,3.3-3.9,5-5.8c1.7-2,2.2-3.3,3.3-5.6s0.6-4.2-0.3-5.8
				s-7.5-18.1-10.3-24.8c-2.7-6.5-5.5-5.6-7.5-5.7c-1.9-0.1-4.2-0.1-6.4-0.1s-5.8,0.8-8.9,4.2c-3.1,3.3-11.7,11.4-11.7,27.8
				s12,32.3,13.6,34.5c1.7,2.2,23.5,35.9,57,50.3c8,3.4,14.2,5.5,19,7c8,2.5,15.3,2.2,21,1.3c6.4-1,19.7-8.1,22.5-15.9
				c2.8-7.8,2.8-14.5,1.9-15.9C201,163.9,198.8,163,195.5,161.4L195.5,161.4z"/>
		</g>
	</g>
</g>
</svg>
